PathFileType	4	(X/Y/Z)	/Users/itak/Documents/Research/Walk-IL/dataset/trc/00278_00010.trc
DataRate	CameraRate	NumFrames	NumMarkers	Units	OrigDataRate	OrigDataStartFrame	OrigNumFrames
100.000000	100.000000	4	54	mm	100.000000	276	552
Frame#	Time	RPSI			LPSI			L3			STRN			T10			C7			CLAV			RBAK			LBAK			LSHO			LUPA			LAEL			LAOL			LWTS			LWPS			LFRA			LIFD			LHPS			LHTS			RSHO			RUPA			RAEL			RAOL			RWTS			RWPS			RFRA			RIFD			RHTS			RHPS			RBHD			LFHD			RFHD			LBHD			LHIP			RASI			LASI			LKNE			LTHI			LANK			LTIP			LTOE			LMT1			LMT5			LHEE			RKNE			RTHI			RANK			RTIP			RTOE			RMT1			RMT5			RHEE			RHIP			*53			
		X1	Y1	Z1	X2	Y2	Z2	X3	Y3	Z3	X4	Y4	Z4	X5	Y5	Z5	X6	Y6	Z6	X7	Y7	Z7	X8	Y8	Z8	X9	Y9	Z9	X10	Y10	Z10	X11	Y11	Z11	X12	Y12	Z12	X13	Y13	Z13	X14	Y14	Z14	X15	Y15	Z15	X16	Y16	Z16	X17	Y17	Z17	X18	Y18	Z18	X19	Y19	Z19	X20	Y20	Z20	X21	Y21	Z21	X22	Y22	Z22	X23	Y23	Z23	X24	Y24	Z24	X25	Y25	Z25	X26	Y26	Z26	X27	Y27	Z27	X28	Y28	Z28	X29	Y29	Z29	X30	Y30	Z30	X31	Y31	Z31	X32	Y32	Z32	X33	Y33	Z33	X34	Y34	Z34	X35	Y35	Z35	X36	Y36	Z36	X37	Y37	Z37	X38	Y38	Z38	X39	Y39	Z39	X40	Y40	Z40	X41	Y41	Z41	X42	Y42	Z42	X43	Y43	Z43	X44	Y44	Z44	X45	Y45	Z45	X46	Y46	Z46	X47	Y47	Z47	X48	Y48	Z48	X49	Y49	Z49	X50	Y50	Z50	X51	Y51	Z51	X52	Y52	Z52	X53	Y53	Z53	X54	Y54	Z54	

277	2.76	1023.549987792969	968.8078002929688	-722.7146606445312	1008.737731933594	953.1041259765625	-549.970458984375	1005.195617675781	1033.72802734375	-612.9468994140625	749.0687255859375	1208.48095703125	-631.980224609375	1012.833923339844	1148.9228515625	-588.5740356445312	956.3524780273438	1390.76953125	-562.428466796875	809.7139892578125	1307.544921875	-609.0101928710938	1026.85498046875	1260.780395507812	-632.3457641601562	953.0416870117188	1347.667724609375	-459.1043701171875	853.794921875	1349.390625	-430.5112609863281	854.2835693359375	1229.077758789062	-359.7737731933594	807.0449829101562	1034.173461914062	-366.4876708984375	883.3653564453125	1003.095336914062	-398.1129150390625	666.479248046875	880.8402099609375	-467.4116821289062	668.442138671875	850.63525390625	-401.83740234375	754.872314453125	949.235107421875	-376.8930053710938	572.3714599609375	723.958740234375	-507.1896362304688	623.5725708007812	777.729248046875	-424.2242126464844	593.2587890625	808.9993286132812	-472.9414672851562	928.1649169921875	1380.11181640625	-732.5653076171875	958.0436401367188	1332.072509765625	-798.0908813476562	1042.927856445312	1081.133544921875	-838.7644653320312	1036.531372070312	1072.905395507812	-744.5775756835938	999.6904296875	834.6453857421875	-833.3869018554688	1064.199340820312	851.2355346679688	-884.5223388671875	1043.810668945312	1013.423950195312	-860.7240600585938	1035.595092773438	692.4230346679688	-862.9598388671875	1018.775390625	730.820068359375	-854.9846801757812	1078.227661132812	736.6839599609375	-885.3132934570312	936.5669555664062	1548.78125	-647.3302001953125	764.0726318359375	1585.494750976562	-528.4301147460938	766.849609375	1588.063720703125	-621.6639404296875	931.605224609375	1533.53662109375	-501.5242309570312	934.8093872070312	898.1774291992188	-461.8133850097656	806.54150390625	935.1528930664062	-764.50634765625	799.22216796875	910.8884887695312	-514.1762084960938	924.0572509765625	443.9969787597656	-570.4376220703125	905.6639404296875	580.427978515625	-523.1669311523438	1111.298095703125	39.13455581665039	-606.8020629882812	1015.808471679688	228.5032806396484	-585.876220703125	968.1484985351562	27.18669891357422	-769.65576171875	1050.056518554688	20.04325103759766	-760.52197265625	999.6956176757812	33.37360000610352	-662.3653564453125	1180.923706054688	37.34882354736328	-633.3599853515625	730.28271484375	497.1868286132812	-849.2156982421875	817.2044067382812	744.852783203125	-855.6846923828125	596.8128051757812	57.86124801635742	-887.3040771484375	672.600830078125	390.4912109375	-852.74658203125	446.2546691894531	135.7263793945312	-785.032958984375	502.9187622070312	104.6900329589844	-762.7568969726562	494.7707824707031	84.71360015869141	-877.4521484375	657.9745483398438	38.02478790283203	-853.427734375	925.1941528320312	931.129150390625	-833.8623046875	nan	nan	nan	
278	2.77	1013.789428710938	966.18701171875	-726.6720581054688	1000.528564453125	950.9877319335938	-553.7770385742188	996.8499145507812	1031.567504882812	-616.5501708984375	740.2596435546875	1205.908813476562	-632.595458984375	1004.614990234375	1147.248046875	-591.9756469726562	947.6091918945312	1388.941284179688	-565.2177734375	800.7600708007812	1305.08837890625	-610.224365234375	1017.766540527344	1259.11279296875	-635.8897094726562	945.5819091796875	1345.754150390625	-461.8172302246094	846.5235595703125	1347.069946289062	-432.2067260742188	848.0617065429688	1226.628662109375	-361.6778564453125	800.1178588867188	1032.094116210938	-368.4790344238281	876.0316772460938	1000.466186523438	-400.5663452148438	657.5228881835938	880.91552734375	-469.0462951660156	659.2803344726562	850.6787109375	-403.4590759277344	746.8876342773438	948.0503540039062	-378.6977844238281	561.365234375	725.56201171875	-507.936767578125	612.9141235351562	778.653564453125	-425.54052734375	583.0272216796875	810.41015625	-474.109619140625	917.5487670898438	1378.10595703125	-735.0984497070312	946.8328857421875	1330.124389648438	-800.9404296875	1032.472045898438	1079.700561523438	-842.7233276367188	1027.509399414062	1071.429077148438	-748.4014282226562	989.9979858398438	832.9794921875	-835.835205078125	1053.475341796875	849.4773559570312	-888.0374145507812	1033.142456054688	1011.736022949219	-864.3856811523438	1025.48046875	689.427490234375	-865.4181518554688	1008.661010742188	728.8743286132812	-858.050537109375	1067.7060546875	734.9422607421875	-888.6715087890625	927.5377197265625	1546.075073242188	-650.7167358398438	755.86279296875	1584.187255859375	-530.6834716796875	758.1129150390625	1586.113037109375	-624.0617065429688	923.47119140625	1531.628662109375	-504.7733154296875	927.2138061523438	896.253173828125	-464.9990234375	796.4290161132812	933.2482299804688	-766.4334716796875	791.00390625	909.1052856445312	-515.9902954101562	920.7139282226562	443.1036987304688	-570.8541870117188	900.946533203125	579.4104614257812	-524.0182495117188	1111.584838867188	39.68665313720703	-607.3706665039062	1014.525329589844	228.4554443359375	-586.2576904296875	967.8031005859375	26.7424488067627	-769.681396484375	1050.150512695312	20.27013397216797	-760.5718383789062	999.8624267578125	33.48353576660156	-662.435546875	1181.121459960938	38.62336730957031	-634.0550537109375	719.441162109375	494.7205505371094	-849.71142578125	806.7496948242188	741.9982299804688	-858.4677734375	571.9456787109375	58.92890167236328	-882.8984985351562	659.6061401367188	390.1705627441406	-852.3598022460938	424.2365417480469	143.0590972900391	-781.3961791992188	480.0358581542969	110.5539245605469	-759.24853515625	471.0509033203125	89.2874755859375	-873.3440551757812	632.865478515625	38.14406967163086	-848.9786987304688	914.4075927734375	928.7123413085938	-836.9576416015625	nan	nan	nan	
279	2.78	1003.93115234375	963.435302734375	-730.4169311523438	992.0191040039062	948.8244018554688	-557.3658447265625	988.3037719726562	1029.283081054688	-620.0396728515625	731.3638305664062	1203.334106445312	-633.2940673828125	996.21533203125	1145.48486328125	-595.3270874023438	938.7936401367188	1387.049072265625	-567.963134765625	791.7178344726562	1302.60693359375	-611.488525390625	1008.588562011719	1257.322387695312	-639.3497314453125	937.978515625	1343.765258789062	-464.5034484863281	839.115478515625	1344.723510742188	-433.9102172851562	841.7554321289062	1224.129028320312	-363.6087646484375	793.2696533203125	1029.955932617188	-370.4363098144531	868.841796875	997.899169921875	-402.9192810058594	648.8496704101562	880.69677734375	-470.5192260742188	650.5076904296875	850.3925170898438	-404.9266662597656	739.1521606445312	946.6768188476562	-380.4233093261719	550.9569091796875	726.7459106445312	-508.6099548339844	602.8220825195312	779.1498413085938	-426.7352294921875	573.2941284179688	811.3809204101562	-475.123779296875	906.9555053710938	1376.02734375	-737.5736694335938	935.6712646484375	1328.073120117188	-803.712890625	1021.78369140625	1078.0830078125	-846.6971435546875	1018.16455078125	1069.724609375	-752.2550659179688	979.8953857421875	831.1687622070312	-838.4482421875	1042.359008789062	847.5592651367188	-891.7031860351562	1022.189880371094	1009.879760742188	-868.1047973632812	1014.860717773438	686.2553100585938	-868.1275024414062	998.0413208007812	726.751708984375	-861.3673706054688	1056.679321289062	733.0238647460938	-892.2807006835938	918.4468383789062	1543.354370117188	-654.0480346679688	747.5460205078125	1582.847045898438	-532.9285278320312	749.295166015625	1584.138427734375	-626.4425659179688	915.2310791015625	1529.67724609375	-507.9729614257812	919.211669921875	894.3817138671875	-468.0411987304688	786.34765625	931.306640625	-768.4202270507812	782.4358520507812	907.2979736328125	-517.882080078125	917.2699584960938	442.2740173339844	-571.201416015625	896.0051879882812	578.4242553710938	-524.81787109375	1111.78125	40.31791687011719	-607.8649291992188	1013.1640625	228.5495300292969	-586.5337524414062	967.5800170898438	26.48207664489746	-769.69580078125	1050.169921875	20.49515724182129	-760.6309814453125	999.95703125	33.60161209106445	-662.5154418945312	1181.191772460938	40.02539443969727	-634.6600341796875	708.227294921875	492.4273376464844	-849.9467163085938	796.0886840820312	739.197509765625	-861.153564453125	549.9288940429688	59.60028076171875	-878.2457275390625	646.7493286132812	389.6011352539062	-851.7394409179688	404.1053161621094	149.0617370605469	-778.535400390625	459.1257934570312	115.437629699707	-756.0567016601562	450.1210327148438	93.03657531738281	-869.6787719726562	610.4967651367188	38.16915893554688	-843.9795532226562	903.7325439453125	926.2483520507812	-840.0001831054688	nan	nan	nan	
280	2.79	993.9790649414062	960.633056640625	-733.9366455078125	983.1927490234375	946.6724853515625	-560.7296752929688	979.5386352539062	1026.8984375	-623.3870239257812	722.3568115234375	1200.802856445312	-634.0807495117188	987.6137084960938	1143.646484375	-598.6109619140625	929.9031372070312	1385.109252929688	-570.6620483398438	782.5828247070312	1300.147827148438	-612.8049926757812	999.30859375	1255.427856445312	-642.7156372070312	930.2169189453125	1341.730712890625	-467.1637268066406	831.578369140625	1342.397216796875	-435.6265869140625	835.3291625976562	1221.61865234375	-365.5702514648438	786.50830078125	1027.78076171875	-372.3458862304688	861.8305053710938	995.430419921875	-405.1908874511719	640.470458984375	880.1841430664062	-471.8151245117188	642.1467895507812	849.7662353515625	-406.237060546875	731.7046508789062	945.113525390625	-382.0611877441406	541.1773681640625	727.4655151367188	-509.1952819824219	593.3367309570312	779.193115234375	-427.8012390136719	564.0590209960938	811.8933715820312	-475.9620666503906	896.40283203125	1373.90380859375	-739.9951171875	924.5784301757812	1325.944702148438	-806.4110107421875	1010.850280761719	1076.283935546875	-850.653076171875	1008.482238769531	1067.797973632812	-756.1113891601562	969.3880004882812	829.219482421875	-841.2200317382812	1030.859741210938	845.5130004882812	-895.5133666992188	1010.948303222656	1007.876647949219	-871.8621826171875	1003.75390625	682.9357299804688	-871.0816650390625	986.9344482421875	724.4815063476562	-864.9290161132812	1045.16552734375	730.9581909179688	-896.1345825195312	909.2911987304688	1540.6640625	-657.3173828125	739.1143188476562	1581.487915039062	-535.1724853515625	740.392578125	1582.161499023438	-628.80615234375	906.8954467773438	1527.73046875	-511.11865234375	910.8192749023438	892.6070556640625	-470.9194641113281	776.2658081054688	929.3534545898438	-770.4420776367188	773.5121459960938	905.4803466796875	-519.8201904296875	913.6752319335938	441.5166015625	-571.4949340820312	890.8115844726562	577.4818725585938	-525.5787963867188	1111.869873046875	41.05499649047852	-608.2791748046875	1011.683044433594	228.8079223632812	-586.7073974609375	967.4498291015625	26.35588073730469	-769.7029418945312	1050.091918945312	20.72202491760254	-760.7041015625	999.9547729492188	33.73017501831055	-662.6101684570312	1181.138671875	41.60502624511719	-635.1653442382812	696.6364135742188	490.3796997070312	-849.903076171875	785.2093505859375	736.5579223632812	-863.6508178710938	530.7652587890625	59.70380783081055	-873.4844360351562	633.94482421875	388.7509460449219	-850.8499755859375	385.9634094238281	153.4231719970703	-776.1372680664062	440.3265686035156	119.0628128051758	-752.9620361328125	431.8945617675781	95.65751647949219	-866.3045043945312	590.9371337890625	37.91306304931641	-838.6810913085938	893.1431884765625	923.78271484375	-842.9583740234375	nan	nan	nan	
